<svg width="23" height="25" viewBox="0 0 23 25" fill="none" xmlns="http://www.w3.org/2000/svg">
<path d="M3.38184 10.4267V19.9338" stroke="#8E949A" stroke-width="1.5" stroke-linecap="round" stroke-linejoin="round"/>
<path d="M8.6748 19.9024V10.4267" stroke="#8E949A" stroke-width="1.5" stroke-linecap="round" stroke-linejoin="round"/>
<path d="M13.9678 10.4267V19.9024" stroke="#8E949A" stroke-width="1.5" stroke-linecap="round" stroke-linejoin="round"/>
<path d="M19.251 19.9338V10.4267" stroke="#8E949A" stroke-width="1.5" stroke-linecap="round" stroke-linejoin="round"/>
<path d="M21.2426 6.54841L14.2825 1.68476C13.4052 1.07614 12.3629 0.75 11.2952 0.75C10.2274 0.75 9.18512 1.07614 8.3078 1.68476L1.32679 6.54841C1.14379 6.6861 0.996106 6.86529 0.895879 7.07121C0.795652 7.27713 0.745753 7.5039 0.750283 7.73287V8.96975C0.7489 9.16059 0.785294 9.34981 0.857369 9.52653C0.929443 9.70324 1.03577 9.86394 1.17023 9.99937C1.30469 10.1348 1.46462 10.2423 1.64081 10.3156C1.81699 10.389 2.00596 10.4268 2.1968 10.4267H20.446C20.6368 10.4268 20.8258 10.389 21.0019 10.3156C21.1781 10.2423 21.3381 10.1348 21.4725 9.99937C21.607 9.86394 21.7133 9.70324 21.7854 9.52653C21.8575 9.34981 21.8939 9.16059 21.8925 8.96975V7.73287C21.8887 7.49746 21.8276 7.26652 21.7143 7.06011C21.6011 6.85369 21.4391 6.67804 21.2426 6.54841Z" stroke="#8E949A" stroke-width="1.5" stroke-linecap="round" stroke-linejoin="round"/>
<path d="M2.67966 23.8018H19.9645C21.8932 23.8018 21.8932 22.8374 21.8932 21.8731C21.8932 19.9339 20.9288 19.9339 19.9645 19.9339H2.67966C1.71532 19.9339 0.750977 19.9339 0.750977 21.8731C0.750977 23.8018 1.71532 23.8018 2.67966 23.8018Z" stroke="#8E949A" stroke-width="1.5" stroke-linecap="round" stroke-linejoin="round"/>
</svg>
