<svg width="42" height="50" viewBox="0 0 42 50" fill="none" xmlns="http://www.w3.org/2000/svg">
<rect width="50" height="50" rx="5" fill="#A4A9AE" fill-opacity="0.15"/>
<path d="M16.6318 23.6767V33.1838" stroke="#8E949A" stroke-width="1.5" stroke-linecap="round" stroke-linejoin="round"/>
<path d="M21.9248 33.1524V23.6767" stroke="#8E949A" stroke-width="1.5" stroke-linecap="round" stroke-linejoin="round"/>
<path d="M27.2178 23.6767V33.1524" stroke="#8E949A" stroke-width="1.5" stroke-linecap="round" stroke-linejoin="round"/>
<path d="M32.501 33.1838V23.6767" stroke="#8E949A" stroke-width="1.5" stroke-linecap="round" stroke-linejoin="round"/>
<path d="M34.4926 19.7984L27.5325 14.9348C26.6552 14.3261 25.6129 14 24.5452 14C23.4774 14 22.4351 14.3261 21.5578 14.9348L14.5768 19.7984C14.3938 19.9361 14.2461 20.1153 14.1459 20.3212C14.0457 20.5271 13.9958 20.7539 14.0003 20.9829V22.2197C13.9989 22.4106 14.0353 22.5998 14.1074 22.7765C14.1794 22.9532 14.2858 23.1139 14.4202 23.2494C14.5547 23.3848 14.7146 23.4923 14.8908 23.5656C15.067 23.639 15.256 23.6768 15.4468 23.6767H33.696C33.8868 23.6768 34.0758 23.639 34.2519 23.5656C34.4281 23.4923 34.5881 23.3848 34.7225 23.2494C34.857 23.1139 34.9633 22.9532 35.0354 22.7765C35.1075 22.5998 35.1439 22.4106 35.1425 22.2197V20.9829C35.1387 20.7475 35.0776 20.5165 34.9643 20.3101C34.8511 20.1037 34.6891 19.928 34.4926 19.7984Z" stroke="#8E949A" stroke-width="1.5" stroke-linecap="round" stroke-linejoin="round"/>
<path d="M15.9297 37.0518H33.2145C35.1432 37.0518 35.1432 36.0874 35.1432 35.1231C35.1432 33.1839 34.1788 33.1839 33.2145 33.1839H15.9297C14.9653 33.1839 14.001 33.1839 14.001 35.1231C14.001 37.0518 14.9653 37.0518 15.9297 37.0518Z" stroke="#8E949A" stroke-width="1.5" stroke-linecap="round" stroke-linejoin="round"/>
</svg>
