<svg width="25" height="25" viewBox="0 0 25 25" fill="none" xmlns="http://www.w3.org/2000/svg">
<path d="M5.24489 6.62217V19.7551C5.24489 22.8714 6.85603 23.6027 8.82756 21.3874C9.01575 21.1498 9.25842 20.961 9.53504 20.8371C9.81165 20.7131 10.1141 20.6576 10.4167 20.6753C10.7193 20.6929 11.0132 20.7833 11.2735 20.9386C11.5338 21.0939 11.7528 21.3097 11.912 21.5676L13.0356 23.147C13.2007 23.4308 13.4373 23.6663 13.7219 23.83C14.0065 23.9936 14.329 24.0798 14.6573 24.0798C14.9856 24.0798 15.3082 23.9936 15.5928 23.83C15.8774 23.6663 16.114 23.4308 16.2791 23.147L17.339 21.5782C17.4995 21.3202 17.7196 21.1045 17.9808 20.9493C18.2419 20.7941 18.5366 20.7038 18.8399 20.6862C19.1432 20.6685 19.4463 20.7239 19.7238 20.8478C20.0012 20.9717 20.2448 21.1604 20.4341 21.398C22.4056 23.6133 24.0168 22.882 24.0168 19.7657V6.62217C24.0168 1.92655 22.9568 0.75 18.7912 0.75H2.54199" stroke="#456EFE" stroke-width="1.5" stroke-linecap="round" stroke-linejoin="round"/>
<path d="M3.00751 0.75C1.21618 0.75 0.760392 1.92655 0.760392 6.62217V9.80206C0.699635 10.4918 0.906935 11.1784 1.33922 11.7192C1.77151 12.2601 2.39556 12.6136 3.08171 12.7064H5.20163V6.61158C5.24403 1.92655 4.79884 0.75 3.00751 0.75Z" stroke="#456EFE" stroke-width="1.5" stroke-linecap="round" stroke-linejoin="round"/>
<path d="M14.5404 7.80923L12.5371 11.7417H16.777L14.5192 15.6741" stroke="#456EFE" stroke-width="1.5" stroke-linecap="round" stroke-linejoin="round"/>
</svg>
