<svg width="51" height="50" viewBox="0 0 51 50" fill="none" xmlns="http://www.w3.org/2000/svg">
<rect width="50.3766" height="49.7138" rx="5" fill="#F8C74E" fill-opacity="0.15"/>
<path d="M22.5024 20.72C22.5906 21.08 22.7953 21.4006 23.0847 21.6322C23.3741 21.8637 23.7319 21.993 24.1024 22H25.9824C26.3768 21.9869 26.7501 21.819 27.0215 21.5326C27.2929 21.2463 27.4405 20.8645 27.4324 20.47C27.4735 20.1476 27.3942 19.8214 27.2096 19.5538C27.0251 19.2863 26.7484 19.0962 26.4324 19.02L23.4324 17.97C23.1176 17.8918 22.8422 17.7013 22.658 17.4343C22.4738 17.1672 22.3936 16.8421 22.4324 16.52C22.4284 16.3243 22.463 16.1298 22.5343 15.9475C22.6055 15.7652 22.7119 15.5987 22.8475 15.4575C22.9831 15.3164 23.1452 15.2033 23.3245 15.1248C23.5037 15.0463 23.6967 15.0039 23.8924 15H25.7724C26.1421 15.0047 26.4997 15.132 26.7892 15.3618C27.0788 15.5917 27.2839 15.9111 27.3724 16.27" stroke="#F8C74E" stroke-width="1.5" stroke-linecap="round" stroke-linejoin="round"/>
<path d="M24.9326 14V23" stroke="#F8C74E" stroke-width="1.5" stroke-linecap="round" stroke-linejoin="round"/>
<path d="M17.8321 33.7199H16.4021C16.2141 33.7237 16.0318 33.6557 15.8921 33.5299L15.2621 32.9899C15.1725 32.9104 15.1024 32.8112 15.0574 32.7003C15.0123 32.5893 14.9933 32.4694 15.0021 32.3499L15.1621 30.0599C15.1765 29.8879 15.2469 29.7254 15.3625 29.5971C15.4781 29.4689 15.6325 29.3821 15.8021 29.3499L16.8921 29.1499C17.7321 27.6699 26.0921 22.7599 29.2721 29.1499C30.82 29.3485 32.351 29.6628 33.8521 30.0899C34.1798 30.2011 34.4643 30.4125 34.6653 30.6942C34.8663 30.976 34.9736 31.3138 34.9721 31.6599V33.1399C34.9734 33.2156 34.9596 33.2908 34.9316 33.3611C34.9035 33.4314 34.8618 33.4954 34.8087 33.5494C34.7556 33.6034 34.6923 33.6463 34.6225 33.6756C34.5527 33.7049 34.4778 33.7199 34.4021 33.7199H32.6221" stroke="#F8C74E" stroke-width="1.5" stroke-linecap="round" stroke-linejoin="round"/>
<path d="M29.2221 29.1901H25.3721" stroke="#F8C74E" stroke-width="1.5" stroke-linecap="round" stroke-linejoin="round"/>
<path d="M30.3318 36C31.5689 36 32.5718 34.9971 32.5718 33.76C32.5718 32.5229 31.5689 31.52 30.3318 31.52C29.0947 31.52 28.0918 32.5229 28.0918 33.76C28.0918 34.9971 29.0947 36 30.3318 36Z" stroke="#F8C74E" stroke-width="1.5" stroke-linecap="round" stroke-linejoin="round"/>
<path d="M20.0623 36C21.2994 36 22.3023 34.9971 22.3023 33.76C22.3023 32.5229 21.2994 31.52 20.0623 31.52C18.8251 31.52 17.8223 32.5229 17.8223 33.76C17.8223 34.9971 18.8251 36 20.0623 36Z" stroke="#F8C74E" stroke-width="1.5" stroke-linecap="round" stroke-linejoin="round"/>
<path d="M22.3018 33.76H28.1018" stroke="#F8C74E" stroke-width="1.5" stroke-linecap="round" stroke-linejoin="round"/>
</svg>
