<svg width="25" height="26" viewBox="0 0 25 26" fill="none" xmlns="http://www.w3.org/2000/svg">
<path d="M5.192 10.7673H7.26856C9.34513 10.7673 10.3834 9.69052 10.3834 7.53704V5.38356C10.3834 3.23009 9.34513 2.15335 7.26856 2.15335H5.192C3.11543 2.15335 2.07715 3.23009 2.07715 5.38356V7.53704C2.07715 9.69052 3.11543 10.7673 5.192 10.7673Z" stroke="#8E949A" stroke-width="1.5" stroke-miterlimit="10" stroke-linecap="round" stroke-linejoin="round"/>
<path d="M17.651 10.7673H19.7275C21.8041 10.7673 22.8424 9.69052 22.8424 7.53704V5.38356C22.8424 3.23009 21.8041 2.15335 19.7275 2.15335H17.651C15.5744 2.15335 14.5361 3.23009 14.5361 5.38356V7.53704C14.5361 9.69052 15.5744 10.7673 17.651 10.7673Z" stroke="#8E949A" stroke-width="1.5" stroke-miterlimit="10" stroke-linecap="round" stroke-linejoin="round"/>
<path d="M17.651 23.6882H19.7275C21.8041 23.6882 22.8424 22.6114 22.8424 20.458V18.3045C22.8424 16.151 21.8041 15.0743 19.7275 15.0743H17.651C15.5744 15.0743 14.5361 16.151 14.5361 18.3045V20.458C14.5361 22.6114 15.5744 23.6882 17.651 23.6882Z" stroke="#8E949A" stroke-width="1.5" stroke-miterlimit="10" stroke-linecap="round" stroke-linejoin="round"/>
<path d="M5.192 23.6882H7.26856C9.34513 23.6882 10.3834 22.6114 10.3834 20.458V18.3045C10.3834 16.151 9.34513 15.0743 7.26856 15.0743H5.192C3.11543 15.0743 2.07715 16.151 2.07715 18.3045V20.458C2.07715 22.6114 3.11543 23.6882 5.192 23.6882Z" stroke="#8E949A" stroke-width="1.5" stroke-miterlimit="10" stroke-linecap="round" stroke-linejoin="round"/>
</svg>
