<svg width="30" height="30" viewBox="0 0 30 30" fill="none" xmlns="http://www.w3.org/2000/svg">
<rect width="29.6891" height="29.6891" rx="5" fill="#13C999" fill-opacity="0.15"/>
<path d="M11.2412 12.9187V13.4226" stroke="#13C999" stroke-width="1.2" stroke-linecap="round" stroke-linejoin="round"/>
<path d="M13.4082 12.9187V13.4226" stroke="#13C999" stroke-width="1.2" stroke-linecap="round" stroke-linejoin="round"/>
<path d="M15.584 12.9187V13.4226" stroke="#13C999" stroke-width="1.2" stroke-linecap="round" stroke-linejoin="round"/>
<path d="M17.751 12.9187V13.4226" stroke="#13C999" stroke-width="1.2" stroke-linecap="round" stroke-linejoin="round"/>
<path d="M20.9865 10.3663C20.9782 9.94285 20.8489 9.53062 20.6139 9.17822C20.379 8.82582 20.0482 8.54794 19.6606 8.37735C18.0406 7.63705 16.2803 7.25389 14.4992 7.25389C12.7181 7.25389 10.9579 7.63705 9.33792 8.37735C8.95525 8.54554 8.62782 8.8183 8.39325 9.16428C8.15869 9.51025 8.02653 9.9154 8.01195 10.3331C7.9125 12.9851 8.32355 18.879 13.5412 21.6038C13.8417 21.7613 14.1745 21.8475 14.5137 21.8555C14.8529 21.8636 15.1894 21.7933 15.497 21.6503C20.6882 19.2237 21.0926 13.1243 20.9865 10.3663Z" stroke="#13C999" stroke-width="1.2" stroke-linecap="round" stroke-linejoin="round"/>
</svg>
