<svg width="26" height="25" viewBox="0 0 26 25" fill="none" xmlns="http://www.w3.org/2000/svg">
<path d="M18.5045 3.19001C18.5045 5.68347 13.9242 8.54077 13.9242 8.54077C13.9242 8.54077 9.34397 5.70487 9.34397 3.19001C9.33663 2.64118 9.51703 2.10632 9.85527 1.67405C10.1935 1.24177 10.6693 0.938029 11.2038 0.81315C11.7383 0.688271 12.2994 0.74975 12.7941 0.987399C13.2889 1.22505 13.6876 1.6246 13.9242 2.11986C14.1608 1.6246 14.5596 1.22505 15.0543 0.987399C15.5491 0.74975 16.1102 0.688271 16.6447 0.81315C17.1791 0.938029 17.6549 1.24177 17.9932 1.67405C18.3314 2.10632 18.5118 2.64118 18.5045 3.19001Z" stroke="#456EFE" stroke-width="1.5" stroke-linecap="round" stroke-linejoin="round"/>
<path d="M3.6073 9.27908H2.65487C1.31718 9.27908 0.75 9.76065 0.75 11.0876V22.4313C0.75 23.7689 1.31718 24.2505 2.65487 24.2505H3.6073C4.945 24.2505 5.51217 23.7689 5.51217 22.4313V11.0876C5.54428 9.76065 4.945 9.27908 3.6073 9.27908Z" stroke="#456EFE" stroke-width="1.5" stroke-linecap="round" stroke-linejoin="round"/>
<path d="M5.80176 21.8533L13.9884 21.9925C15.0083 22.0041 15.9988 21.6511 16.7815 20.9972L23.3523 15.8819C23.8318 15.5154 24.157 14.9828 24.2639 14.3887C24.3709 13.7947 24.2518 13.1822 23.9301 12.6714C23.6298 12.1803 23.1641 11.8125 22.6168 11.634C22.0696 11.4555 21.4765 11.478 20.9444 11.6976L15.8505 13.7737" stroke="#456EFE" stroke-width="1.5" stroke-linecap="round" stroke-linejoin="round"/>
<path d="M11.2381 17.0912L14.363 16.235C14.828 16.1188 15.2351 15.8378 15.5086 15.4442C15.7822 15.0506 15.9037 14.5711 15.8505 14.0947C15.8027 13.682 15.6276 13.2944 15.3496 12.9856C15.0715 12.6769 14.7043 12.4624 14.2988 12.3718L5.80176 12.1899" stroke="#456EFE" stroke-width="1.5" stroke-linecap="round" stroke-linejoin="round"/>
</svg>
