<svg width="30" height="30" viewBox="0 0 30 30" fill="none" xmlns="http://www.w3.org/2000/svg">
<rect width="29.6891" height="29.6891" rx="5" fill="#456EFE" fill-opacity="0.15"/>
<path d="M7.00098 11.2174H22.1322" stroke="#456EFE" stroke-width="1.2" stroke-linecap="round" stroke-linejoin="round"/>
<path d="M11.0968 18.9094H10.0642C9.21025 18.9094 8.39119 18.5706 7.78671 17.9675C7.18223 17.3643 6.8417 16.546 6.83984 15.6921V11.2173C6.8417 10.3634 7.18223 9.54508 7.78671 8.94191C8.39119 8.33875 9.21025 8.00001 10.0642 8.00001H19.112C19.5348 7.99908 19.9535 8.08167 20.3443 8.24303C20.7351 8.40438 21.0901 8.64134 21.389 8.94027C21.688 9.23921 21.9249 9.59426 22.0863 9.98502C22.2476 10.3758 22.3302 10.7946 22.3293 11.2173V15.6921C22.3302 16.1148 22.2476 16.5336 22.0863 16.9244C21.9249 17.3151 21.688 17.6702 21.389 17.9691C21.0901 18.268 20.7351 18.505 20.3443 18.6664C19.9535 18.8277 19.5348 18.9103 19.112 18.9094H18.0653" stroke="#456EFE" stroke-width="1.2" stroke-linecap="round" stroke-linejoin="round"/>
<path d="M16.9204 16.3453L12.2139 21.0448" stroke="#456EFE" stroke-width="1.2" stroke-linecap="round" stroke-linejoin="round"/>
<path d="M14.5669 22.1618C16.4834 22.1618 18.0371 20.6081 18.0371 18.6916C18.0371 16.7751 16.4834 15.2214 14.5669 15.2214C12.6503 15.2214 11.0967 16.7751 11.0967 18.6916C11.0967 20.6081 12.6503 22.1618 14.5669 22.1618Z" stroke="#456EFE" stroke-width="1.2" stroke-linecap="round" stroke-linejoin="round"/>
</svg>
