<svg width="24" height="25" viewBox="0 0 24 25" fill="none" xmlns="http://www.w3.org/2000/svg">
<path d="M11.0489 13.6476C10.533 13.6476 10.0382 13.4506 9.6734 13.1C9.3086 12.7494 9.10364 12.2738 9.10364 11.7779C9.10073 11.5306 9.14892 11.2852 9.24538 11.0559C9.34183 10.8267 9.48466 10.618 9.66559 10.4422C9.84651 10.2663 10.0619 10.1267 10.2994 10.0314C10.5368 9.93616 10.7916 9.8871 11.0489 9.88712H13.2469" stroke="#13C999" stroke-width="1.5" stroke-linecap="round" stroke-linejoin="round"/>
<path d="M11.049 13.6477H12.0381C12.554 13.6477 13.0488 13.8447 13.4136 14.1953C13.7784 14.5459 13.9833 15.0215 13.9833 15.5174C13.9833 16.0132 13.7784 16.4888 13.4136 16.8394C13.0488 17.1901 12.554 17.3871 12.0381 17.3871H9.78516" stroke="#13C999" stroke-width="1.5" stroke-linecap="round" stroke-linejoin="round"/>
<path d="M11.5215 8.69357V9.90836" stroke="#13C999" stroke-width="1.5" stroke-linecap="round" stroke-linejoin="round"/>
<path d="M11.5215 17.3765V18.5913" stroke="#13C999" stroke-width="1.5" stroke-linecap="round" stroke-linejoin="round"/>
<path d="M21.5652 9.88733C22.0482 11.0792 22.2942 12.3476 22.2906 13.6267C22.2906 15.6741 21.6589 17.6756 20.4755 19.378C19.292 21.0803 17.6099 22.4072 15.6419 23.1907C13.6739 23.9742 11.5083 24.1792 9.4191 23.7798C7.32987 23.3804 5.41079 22.3944 3.90453 20.9467C2.39828 19.4989 1.37253 17.6544 0.956952 15.6463C0.541379 13.6382 0.754668 11.5568 1.56985 9.66519C2.38502 7.77362 3.76548 6.15686 5.53665 5.01937C7.30781 3.88188 9.39013 3.27475 11.5203 3.27475H17.5319" stroke="#13C999" stroke-width="1.5" stroke-linecap="round" stroke-linejoin="round"/>
<path d="M14.917 5.83092L17.5546 3.29573L14.917 0.75" stroke="#13C999" stroke-width="1.5" stroke-linecap="round" stroke-linejoin="round"/>
</svg>
