<svg width="80" height="80" viewBox="0 0 80 80" fill="none" xmlns="http://www.w3.org/2000/svg">
<rect width="79.764" height="79.764" rx="39.882" fill="#141414"/>
<path d="M38.2902 37.0048C38.474 37.3457 38.5616 37.7301 38.5437 38.117C38.5259 38.5038 38.4032 38.8786 38.1888 39.2011L35.6761 43.2558C35.4895 43.5568 35.191 43.7713 34.8462 43.8522C34.5014 43.933 34.1386 43.8736 33.8376 43.687C33.5367 43.5004 33.3221 43.2019 33.2413 42.8571C33.1604 42.5123 33.2198 42.1496 33.4064 41.8486L35.4531 38.5469H32.6921C32.3555 38.547 32.0235 38.4683 31.7228 38.317C31.4221 38.1657 31.161 37.9461 30.9605 37.6757C30.76 37.4054 30.6256 37.0918 30.5681 36.7601C30.5106 36.4284 30.5316 36.0879 30.6294 35.7658C30.6694 35.6563 33.4037 31.1717 33.4037 31.1717C33.4904 31.0124 33.6087 30.8723 33.7513 30.7602C33.8939 30.6481 34.0579 30.5662 34.2332 30.5196C34.4085 30.473 34.5915 30.4625 34.771 30.489C34.9505 30.5154 35.1227 30.5781 35.2771 30.6733C35.4315 30.7685 35.5649 30.8942 35.6692 31.0427C35.7734 31.1911 35.8463 31.3593 35.8834 31.5369C35.9205 31.7144 35.921 31.8977 35.8849 32.0755C35.8488 32.2533 35.7768 32.4218 35.6734 32.5709L33.6441 35.8766H36.4104C36.7964 35.8773 37.1751 35.9825 37.5061 36.1812C37.8371 36.3798 38.1081 36.6644 38.2902 37.0048ZM55.903 27.866V31.2037C55.9032 31.9732 55.6375 32.7191 55.1509 33.3152C54.6643 33.9112 53.9867 34.3209 53.2328 34.4748V46.5575C53.2328 47.9739 52.6702 49.3323 51.6686 50.3338C50.6671 51.3353 49.3087 51.898 47.8924 51.898H44.6641C44.1434 53.0875 43.2877 54.0997 42.2013 54.811C41.115 55.5222 39.8451 55.9018 38.5466 55.9033H30.5359C28.7661 55.9012 27.0694 55.1972 25.8179 53.9457C24.5665 52.6943 23.8625 50.9976 23.8604 49.2277V30.5362C23.8625 28.7664 24.5665 27.0696 25.8179 25.8182C27.0694 24.5667 28.7661 23.8627 30.5359 23.8606H38.5466C40.3164 23.8627 42.0131 24.5667 43.2646 25.8182C44.516 27.0696 45.22 28.7664 45.2221 30.5362V49.2277H47.8924C48.6005 49.2277 49.2797 48.9464 49.7805 48.4457C50.2813 47.9449 50.5626 47.2657 50.5626 46.5575V34.4748C49.8087 34.3209 49.1311 33.9112 48.6445 33.3152C48.1579 32.7191 47.8922 31.9732 47.8924 31.2037V27.866C47.8924 27.5119 48.033 27.1723 48.2834 26.9219C48.5338 26.6715 48.8734 26.5308 49.2275 26.5308C49.5816 26.5308 49.9212 26.6715 50.1715 26.9219C50.4219 27.1723 50.5626 27.5119 50.5626 27.866V29.2011H53.2328V27.866C53.2328 27.5119 53.3735 27.1723 53.6239 26.9219C53.8742 26.6715 54.2138 26.5308 54.5679 26.5308C54.922 26.5308 55.2616 26.6715 55.512 26.9219C55.7624 27.1723 55.903 27.5119 55.903 27.866ZM42.5519 49.2277V38.5469H41.2168C40.8627 38.5469 40.5231 38.4062 40.2727 38.1558C40.0224 37.9054 39.8817 37.5658 39.8817 37.2117C39.8817 36.8576 40.0224 36.5181 40.2727 36.2677C40.5231 36.0173 40.8627 35.8766 41.2168 35.8766H42.5519V30.5362C42.5519 29.4739 42.1299 28.4551 41.3788 27.704C40.6276 26.9528 39.6089 26.5308 38.5466 26.5308H30.5359C29.4736 26.5308 28.4549 26.9528 27.7037 27.704C26.9526 28.4551 26.5306 29.4739 26.5306 30.5362V35.8766H27.8657C28.2198 35.8766 28.5594 36.0173 28.8098 36.2677C29.0601 36.5181 29.2008 36.8576 29.2008 37.2117C29.2008 37.5658 29.0601 37.9054 28.8098 38.1558C28.5594 38.4062 28.2198 38.5469 27.8657 38.5469H26.5306V49.2277C26.5306 50.29 26.9526 51.3088 27.7037 52.0599C28.4549 52.8111 29.4736 53.2331 30.5359 53.2331H38.5466C39.6089 53.2331 40.6276 52.8111 41.3788 52.0599C42.1299 51.3088 42.5519 50.29 42.5519 49.2277Z" fill="white"/>
</svg>
