<svg width="30" height="30" viewBox="0 0 30 30" fill="none" xmlns="http://www.w3.org/2000/svg">
<rect width="29.6891" height="29.6891" rx="5" fill="#FF6363" fill-opacity="0.15"/>
<path d="M9.39857 11.2669V20.2212C9.39857 22.346 10.4971 22.8447 11.8413 21.3342C11.9696 21.1722 12.1351 21.0435 12.3237 20.959C12.5123 20.8744 12.7185 20.8366 12.9248 20.8486C13.1311 20.8607 13.3315 20.9223 13.509 21.0282C13.6865 21.1341 13.8358 21.2812 13.9444 21.4571L14.7105 22.5339C14.823 22.7274 14.9844 22.888 15.1784 22.9996C15.3724 23.1112 15.5924 23.1699 15.8162 23.1699C16.0401 23.1699 16.26 23.1112 16.454 22.9996C16.6481 22.888 16.8094 22.7274 16.922 22.5339L17.6447 21.4643C17.7541 21.2884 17.9041 21.1413 18.0822 21.0355C18.2603 20.9296 18.4612 20.8681 18.668 20.8561C18.8748 20.844 19.0815 20.8818 19.2706 20.9663C19.4598 21.0508 19.6259 21.1794 19.755 21.3414C21.0992 22.8519 22.1977 22.3532 22.1977 20.2285V11.2669C22.1977 8.06529 21.475 7.26309 18.6348 7.26309H7.55566" stroke="#FF6363" stroke-width="1.2" stroke-linecap="round" stroke-linejoin="round"/>
<path d="M7.87321 7.26309C6.65184 7.26309 6.34107 8.06529 6.34107 11.2669V13.435C6.29964 13.9053 6.44099 14.3734 6.73573 14.7422C7.03048 15.111 7.45597 15.352 7.9238 15.4152H9.36922V11.2597C9.39813 8.0653 9.09459 7.26309 7.87321 7.26309Z" stroke="#FF6363" stroke-width="1.2" stroke-linecap="round" stroke-linejoin="round"/>
<path d="M15.736 12.0763L14.3701 14.7575H17.2609L15.7216 17.4388" stroke="#FF6363" stroke-width="1.2" stroke-linecap="round" stroke-linejoin="round"/>
</svg>
