<svg width="24" height="24" viewBox="0 0 24 24" fill="none" xmlns="http://www.w3.org/2000/svg">
<path d="M3.2002 12.4523V17.4523C3.2002 21.9423 3.64018 22.7523 8.47018 22.7223H14.9302C19.4702 22.7223 20.2102 21.8623 20.2102 17.3723V12.3723" stroke="white" stroke-width="1.5" stroke-linecap="round" stroke-linejoin="round"/>
<path d="M0.75 9.60254V8.41254C0.75 6.79254 1.34999 6.10254 3.04999 6.10254H20.36C22.06 6.10254 22.67 6.79254 22.67 8.40254V9.60254C22.67 11.2225 22.06 11.9125 20.36 11.9125H3.04999C1.34999 11.8725 0.75 11.1825 0.75 9.60254Z" stroke="white" stroke-width="1.5" stroke-linecap="round" stroke-linejoin="round"/>
<path d="M18.22 2.60243C17.9542 2.25831 17.6152 1.97765 17.2275 1.78081C16.8398 1.58397 16.4131 1.47589 15.9785 1.4644C15.5438 1.45291 15.1121 1.53831 14.7145 1.71439C14.317 1.89047 13.9636 2.15283 13.68 2.48243C12.9216 3.53555 12.4309 4.75734 12.25 6.04243H15.01C17.88 6.06243 19.98 4.60243 18.22 2.60243Z" stroke="white" stroke-width="1.5" stroke-linecap="round" stroke-linejoin="round"/>
<path d="M10.5901 1.92243C10.2571 1.54257 9.84452 1.2407 9.38171 1.03828C8.91889 0.835851 8.41717 0.73784 7.9122 0.751204C7.40723 0.764568 6.91142 0.888982 6.45996 1.1156C6.0085 1.34222 5.61247 1.66549 5.30004 2.06243C3.30004 4.35243 5.69006 6.06243 9.03006 6.06243H12.2501C12.0365 4.56934 11.4672 3.14945 10.5901 1.92243Z" stroke="white" stroke-width="1.5" stroke-linecap="round" stroke-linejoin="round"/>
</svg>
