<svg width="14" height="14" viewBox="0 0 14 14" fill="none" xmlns="http://www.w3.org/2000/svg">
<path d="M2.87007 2.11691C3.03949 2.11691 3.2089 2.11267 3.37832 2.11691C3.51808 2.12114 3.59855 2.07879 3.6282 1.92631C3.67903 1.67219 3.75103 1.42231 3.81879 1.17242C3.88656 0.922534 3.98397 0.681119 4.14068 0.469351C4.44563 0.0627567 4.92422 -0.0770101 5.39858 0.10511C5.65694 0.210994 5.87718 0.376173 6.09318 0.549823C6.24565 0.672648 6.38542 0.80818 6.54636 0.92677C6.81743 1.12583 6.72425 1.1343 6.9826 0.918299C7.23673 0.706531 7.46544 0.473586 7.7365 0.287231C7.94827 0.143229 8.17274 0.0204031 8.4311 0.00346172C8.91393 -0.0304211 9.26546 0.185582 9.50264 0.600647C9.689 0.92677 9.74829 1.29525 9.84571 1.65102C9.99394 2.19314 9.85418 2.09573 10.4302 2.09149C10.7732 2.08726 11.1163 2.02373 11.4594 2.08302C12.2133 2.21432 12.5775 2.76915 12.4081 3.51881C12.3319 3.84917 12.1836 4.15411 12.065 4.47176C11.9041 4.90377 11.8702 4.77671 12.2472 5.0266C12.4886 5.18754 12.7469 5.32731 12.9714 5.50943C13.1747 5.67461 13.3568 5.86096 13.4542 6.10661C13.6279 6.54709 13.5262 6.93674 13.2128 7.27981C13.0138 7.49581 12.7639 7.64828 12.5097 7.78805C12.3615 7.86852 12.2217 7.96593 12.0735 8.04641C11.9592 8.10994 11.9337 8.1777 11.9846 8.30053C12.0862 8.53771 12.1794 8.77912 12.2726 9.02054C12.3403 9.19842 12.3954 9.38054 12.4293 9.5669C12.5436 10.2573 12.1159 10.8121 11.417 10.8926C11.0909 10.9307 10.7732 10.8968 10.4514 10.8714C9.9643 10.8333 9.9643 10.8333 9.84571 11.3076C9.76523 11.6295 9.7017 11.9599 9.56617 12.2648C9.35017 12.7477 8.83769 13.1288 8.1685 12.8874C7.84662 12.7731 7.55438 12.6079 7.30873 12.3622C7.1859 12.2394 7.0419 12.1378 6.9106 12.0234C6.80472 11.9345 6.72848 11.9472 6.62683 12.0276C6.41083 12.1928 6.22024 12.3792 6.01271 12.5571C5.83482 12.7095 5.64847 12.8451 5.42823 12.934C4.92422 13.1373 4.40751 12.9848 4.10256 12.5316C3.91621 12.2563 3.8315 11.9387 3.75526 11.6168C3.70867 11.4305 3.65785 11.2483 3.6155 11.062C3.59008 10.9561 3.53502 10.9222 3.42914 10.9222C3.15808 10.9137 2.89125 10.9561 2.62019 10.9603C2.46348 10.9603 2.30253 10.9688 2.14583 10.9476C1.35381 10.8502 0.951455 10.2657 1.13358 9.49066C1.21828 9.13489 1.38346 8.80877 1.50629 8.46147C1.62064 8.13535 1.65029 8.23276 1.36228 8.0337C1.10393 7.86005 0.824394 7.71181 0.582979 7.51699C0.366976 7.34757 0.176385 7.15698 0.0789715 6.89439C-0.0862075 6.46662 0.0154411 6.08543 0.311916 5.74661C0.510978 5.52213 0.760864 5.36119 1.01499 5.20872C1.17593 5.1113 1.33687 5.00542 1.50205 4.90801C1.58676 4.85718 1.59523 4.80212 1.56558 4.71318C1.44699 4.36588 1.27758 4.04399 1.17593 3.69246C1.1124 3.47222 1.06581 3.24775 1.09969 3.01904C1.17593 2.51079 1.56558 2.15502 2.10347 2.08726C2.35336 2.06185 2.61172 2.07032 2.87007 2.11691ZM9.43911 4.86142C9.43911 4.57765 9.26123 4.32353 8.9944 4.22611C8.7191 4.12446 8.42263 4.20494 8.23627 4.43788C7.5332 5.31036 6.83013 6.18708 6.1313 7.06804C6.05506 7.16122 6.01271 7.18239 5.91953 7.08498C5.69506 6.84356 5.45788 6.61485 5.22493 6.38615C4.93269 6.09814 4.52186 6.09391 4.24656 6.37344C3.97974 6.64027 3.98397 7.05957 4.25927 7.34334C4.69551 7.78805 5.14022 8.22853 5.58494 8.669C5.90682 8.98665 6.34307 8.96124 6.62683 8.60971C7.51626 7.50428 8.40145 6.39462 9.28664 5.28919C9.38829 5.16213 9.43911 5.02236 9.43911 4.86142Z" fill="#456EFE"/>
</svg>
