<svg width="12" height="24" viewBox="0 0 12 24" fill="none" xmlns="http://www.w3.org/2000/svg">
<path d="M11.2507 14.1201V21.2001C11.2508 21.6061 11.0916 21.9958 10.8074 22.2857C10.5232 22.5755 10.1366 22.7423 9.7307 22.7501C9.52678 22.7514 9.32463 22.7123 9.13597 22.6348C8.94732 22.5574 8.77591 22.4433 8.63172 22.2991C8.48752 22.1549 8.3734 21.9835 8.29598 21.7948C8.21855 21.6062 8.17937 21.404 8.1807 21.2001V20.6701" stroke="#456EFE" stroke-width="1.5" stroke-linecap="round" stroke-linejoin="round"/>
<path d="M11.2607 2.66V0.75" stroke="#456EFE" stroke-width="1.5" stroke-linecap="round" stroke-linejoin="round"/>
<path d="M21.4106 8.67014L21.0606 8.10014C20.0305 6.43587 18.5924 5.06232 16.8825 4.10977C15.1727 3.15721 13.2479 2.65723 11.2906 2.65723C9.33336 2.65723 7.40853 3.15721 5.6987 4.10977C3.98887 5.06232 2.55071 6.43587 1.52062 8.10014L1.17063 8.67014C0.950748 9.00044 0.812308 9.37816 0.766664 9.77231C0.72102 10.1665 0.769464 10.5658 0.908037 10.9376C1.04661 11.3094 1.27136 11.6431 1.56384 11.9112C1.85633 12.1794 2.20821 12.3743 2.59062 12.4801C8.23669 14.3699 14.3446 14.3699 19.9906 12.4801C20.3596 12.3555 20.6961 12.1501 20.9758 11.879C21.2554 11.6079 21.471 11.2779 21.6071 10.913C21.7431 10.548 21.796 10.1574 21.762 9.76939C21.7281 9.38141 21.608 9.00588 21.4106 8.67014Z" stroke="#456EFE" stroke-width="1.5" stroke-linecap="round" stroke-linejoin="round"/>
<path d="M15.7301 13.3002C14.7301 7.08016 13.0901 2.66016 11.2801 2.66016C9.47008 2.66016 7.79008 7.08016 6.83008 13.3002" stroke="#456EFE" stroke-width="1.5" stroke-linecap="round" stroke-linejoin="round"/>
</svg>
