<svg width="18" height="18" viewBox="0 0 18 18" fill="none" xmlns="http://www.w3.org/2000/svg">
<path d="M3.70081 4.65691V13.7133C3.70081 15.855 4.81185 16.3593 6.1714 14.8389C6.30117 14.6751 6.46853 14.5449 6.65928 14.4594C6.85003 14.3739 7.05857 14.3356 7.26724 14.3478C7.47592 14.36 7.67858 14.4223 7.85808 14.5294C8.03758 14.6366 8.18863 14.7853 8.29845 14.9632L9.07324 16.0523C9.18707 16.248 9.35026 16.4104 9.54651 16.5233C9.74276 16.6362 9.96519 16.6956 10.1916 16.6956C10.418 16.6956 10.6404 16.6362 10.8367 16.5233C11.0329 16.4104 11.1961 16.248 11.3099 16.0523L12.0409 14.9632C12.1521 14.7857 12.3044 14.6376 12.4848 14.5312C12.6653 14.4249 12.8686 14.3633 13.0778 14.3519C13.2869 14.3404 13.4957 14.3793 13.6867 14.4654C13.8777 14.5514 14.0452 14.682 14.1752 14.8463C15.5348 16.3666 16.6458 15.8623 16.6458 13.7206V4.65691C16.6458 1.41884 15.9149 0.607483 13.0423 0.607483H1.83691" stroke="#13C999" stroke-width="1.2" stroke-linecap="round" stroke-linejoin="round"/>
<path d="M2.15914 0.599976C0.923849 0.599976 0.609547 1.41132 0.609547 4.64939V6.84222C0.559658 7.3226 0.698926 7.80352 0.997793 8.1829C1.29666 8.56229 1.7316 8.81029 2.21031 8.87425H3.6722V4.67133C3.70144 1.41864 3.39444 0.599976 2.15914 0.599976Z" stroke="#13C999" stroke-width="1.2" stroke-linecap="round" stroke-linejoin="round"/>
<path d="M6.80078 6.44763C7.69795 5.55492 8.91209 5.05377 10.1777 5.05377C11.4434 5.05377 12.6575 5.55492 13.5547 6.44763" stroke="#13C999" stroke-width="1.2" stroke-linecap="round" stroke-linejoin="round"/>
<path d="M8.08691 8.4139C8.35845 8.14205 8.68092 7.9264 9.03586 7.77926C9.3908 7.63213 9.77125 7.5564 10.1555 7.5564C10.5397 7.5564 10.9202 7.63213 11.2751 7.77926C11.6301 7.9264 11.9525 8.14205 12.2241 8.4139" stroke="#13C999" stroke-width="1.2" stroke-linecap="round" stroke-linejoin="round"/>
<path d="M9.3877 10.3507C9.59141 10.1503 9.86575 10.038 10.1515 10.038C10.4373 10.038 10.7117 10.1503 10.9154 10.3507" stroke="#13C999" stroke-width="1.2" stroke-linecap="round" stroke-linejoin="round"/>
</svg>
