<svg width="26" height="26" viewBox="0 0 26 26" fill="none" xmlns="http://www.w3.org/2000/svg">
<path d="M12.1864 12.71C11.6076 12.71 11.0524 12.48 10.6431 12.0707C10.2338 11.6614 10.0039 11.1063 10.0039 10.5275C10.0039 9.94865 10.2338 9.39352 10.6431 8.98423C11.0524 8.57494 11.6076 8.34499 12.1864 8.34499H14.6962" stroke="#456EFE" stroke-width="1.5" stroke-linecap="round" stroke-linejoin="round"/>
<path d="M12.1872 12.71H13.2784C13.8572 12.71 14.4124 12.9399 14.8217 13.3492C15.231 13.7585 15.4609 14.3136 15.4609 14.8924C15.4609 15.4713 15.231 16.0264 14.8217 16.4357C14.4124 16.845 13.8572 17.0749 13.2784 17.0749H10.7686" stroke="#456EFE" stroke-width="1.5" stroke-linecap="round" stroke-linejoin="round"/>
<path d="M12.7109 6.99187V8.38866" stroke="#456EFE" stroke-width="1.5" stroke-linecap="round" stroke-linejoin="round"/>
<path d="M12.7109 17.0312V18.428" stroke="#456EFE" stroke-width="1.5" stroke-linecap="round" stroke-linejoin="round"/>
<path d="M19.4219 12.71H20.3167" stroke="#456EFE" stroke-width="1.5" stroke-linecap="round" stroke-linejoin="round"/>
<path d="M5.11523 12.71H6.01004" stroke="#456EFE" stroke-width="1.5" stroke-linecap="round" stroke-linejoin="round"/>
<path d="M12.71 24.67C19.3153 24.67 24.67 19.3153 24.67 12.71C24.67 6.10467 19.3153 0.75 12.71 0.75C6.10466 0.75 0.75 6.10467 0.75 12.71C0.75 19.3153 6.10466 24.67 12.71 24.67Z" stroke="#456EFE" stroke-width="1.5" stroke-linecap="round" stroke-linejoin="round"/>
<path d="M12.1864 12.71C11.6076 12.71 11.0524 12.48 10.6431 12.0707C10.2338 11.6614 10.0039 11.1063 10.0039 10.5275C10.0039 9.94865 10.2338 9.39352 10.6431 8.98423C11.0524 8.57494 11.6076 8.34499 12.1864 8.34499H14.6962" stroke="#456EFE" stroke-width="1.5" stroke-linecap="round" stroke-linejoin="round"/>
<path d="M12.1872 12.71H13.2784C13.8572 12.71 14.4124 12.9399 14.8217 13.3492C15.231 13.7585 15.4609 14.3136 15.4609 14.8924C15.4609 15.4713 15.231 16.0264 14.8217 16.4357C14.4124 16.845 13.8572 17.0749 13.2784 17.0749H10.7686" stroke="#456EFE" stroke-width="1.5" stroke-linecap="round" stroke-linejoin="round"/>
<path d="M12.7109 6.99187V8.38866" stroke="#456EFE" stroke-width="1.5" stroke-linecap="round" stroke-linejoin="round"/>
<path d="M12.7109 17.0312V18.428" stroke="#456EFE" stroke-width="1.5" stroke-linecap="round" stroke-linejoin="round"/>
<path d="M19.4219 12.71H20.3167" stroke="#456EFE" stroke-width="1.5" stroke-linecap="round" stroke-linejoin="round"/>
<path d="M5.11523 12.71H6.01004" stroke="#456EFE" stroke-width="1.5" stroke-linecap="round" stroke-linejoin="round"/>
<path d="M12.71 24.67C19.3153 24.67 24.67 19.3153 24.67 12.71C24.67 6.10467 19.3153 0.75 12.71 0.75C6.10466 0.75 0.75 6.10467 0.75 12.71C0.75 19.3153 6.10466 24.67 12.71 24.67Z" stroke="#456EFE" stroke-width="1.5" stroke-linecap="round" stroke-linejoin="round"/>
</svg>
