<svg width="20" height="24" viewBox="0 0 20 24" fill="none" xmlns="http://www.w3.org/2000/svg">
<path d="M13.5456 7.76855H5.76562" stroke="#8E949A" stroke-width="1.5" stroke-linecap="round" stroke-linejoin="round"/>
<path d="M7.25488 7.76855V11.9286C7.25488 14.0186 7.4649 14.3986 9.7049 14.3786C11.9449 14.3586 12.1649 13.9885 12.1649 11.8985V7.76855" stroke="#8E949A" stroke-width="1.5" stroke-linecap="round" stroke-linejoin="round"/>
<path d="M8.99502 22.8185C9.18576 22.9693 9.42181 23.0514 9.665 23.0514C9.90819 23.0514 10.1443 22.9693 10.335 22.8185C12.435 21.2285 18.595 16.0285 18.565 9.95847C18.605 8.76394 18.4043 7.57355 17.9748 6.45819C17.5454 5.34283 16.8959 4.32527 16.065 3.46609C15.2341 2.60692 14.2389 1.92371 13.1385 1.45709C12.0382 0.990476 10.8552 0.75 9.66 0.75C8.4648 0.75 7.28183 0.990476 6.18148 1.45709C5.08113 1.92371 4.08589 2.60692 3.25503 3.46609C2.42417 4.32527 1.77468 5.34283 1.34518 6.45819C0.915683 7.57355 0.714965 8.76394 0.755 9.95847C0.755 15.9585 6.91502 21.2285 8.99502 22.8285" stroke="#8E949A" stroke-width="1.5" stroke-linecap="round" stroke-linejoin="round"/>
</svg>
