<svg width="152" height="152" viewBox="0 0 152 152" fill="none" xmlns="http://www.w3.org/2000/svg">
<g opacity="0.15" filter="url(#filter0_d_5_9586)">
<rect x="43" y="44" width="50" height="50" rx="5" fill="#4B78FE"/>
</g>
<path d="M60.3953 63.3379V76.4708C60.3953 79.5871 62.0064 80.3185 63.9779 78.1032C64.1661 77.8656 64.4088 77.6768 64.6854 77.5528C64.962 77.4289 65.2645 77.3734 65.5671 77.391C65.8697 77.4087 66.1636 77.499 66.4238 77.6544C66.6841 77.8097 66.9032 78.0255 67.0624 78.2834L68.186 79.8627C68.3511 80.1465 68.5877 80.382 68.8723 80.5457C69.1569 80.7094 69.4794 80.7955 69.8077 80.7955C70.136 80.7955 70.4586 80.7094 70.7432 80.5457C71.0278 80.382 71.2644 80.1465 71.4295 79.8627L72.4894 78.294C72.6499 78.036 72.87 77.8203 73.1312 77.6651C73.3923 77.5098 73.687 77.4196 73.9903 77.4019C74.2936 77.3843 74.5967 77.4397 74.8741 77.5636C75.1516 77.6875 75.3952 77.8762 75.5845 78.1138C77.556 80.3291 79.1672 79.5977 79.1672 76.4815V63.3379C79.1672 58.6423 78.1072 57.4658 73.9416 57.4658H57.6924" stroke="#456EFE" stroke-width="1.5" stroke-linecap="round" stroke-linejoin="round"/>
<path d="M58.1579 57.4658C56.3666 57.4658 55.9108 58.6423 55.9108 63.3379V66.5178C55.85 67.2075 56.0573 67.8941 56.4896 68.435C56.9219 68.9759 57.546 69.3294 58.2321 69.4221H60.352V63.3273C60.3944 58.6423 59.9492 57.4658 58.1579 57.4658Z" stroke="#456EFE" stroke-width="1.5" stroke-linecap="round" stroke-linejoin="round"/>
<path d="M69.6908 64.525L67.6875 68.4574H71.9273L69.6696 72.3899" stroke="#456EFE" stroke-width="1.5" stroke-linecap="round" stroke-linejoin="round"/>
<defs>
<filter id="filter0_d_5_9586" x="0" y="0" width="152" height="152" filterUnits="userSpaceOnUse" color-interpolation-filters="sRGB">
<feFlood flood-opacity="0" result="BackgroundImageFix"/>
<feColorMatrix in="SourceAlpha" type="matrix" values="0 0 0 0 0 0 0 0 0 0 0 0 0 0 0 0 0 0 127 0" result="hardAlpha"/>
<feMorphology radius="3" operator="dilate" in="SourceAlpha" result="effect1_dropShadow_5_9586"/>
<feOffset dx="8" dy="7"/>
<feGaussianBlur stdDeviation="24"/>
<feComposite in2="hardAlpha" operator="out"/>
<feColorMatrix type="matrix" values="0 0 0 0 0 0 0 0 0 0 0 0 0 0 0 0 0 0 0.09 0"/>
<feBlend mode="normal" in2="BackgroundImageFix" result="effect1_dropShadow_5_9586"/>
<feBlend mode="normal" in="SourceGraphic" in2="effect1_dropShadow_5_9586" result="shape"/>
</filter>
</defs>
</svg>
