<svg width="23" height="28" viewBox="0 0 23 28" fill="none" xmlns="http://www.w3.org/2000/svg">
<path d="M0.879883 22.163H21.5344" stroke="#456EFE" stroke-width="1.5" stroke-linecap="round" stroke-linejoin="round"/>
<path d="M7.26001 26.779H15.2259C20.8127 26.779 21.7241 25.7256 21.7241 20.1861V7.24897C21.7241 2.76298 20.8008 0.703452 15.2141 0.750798H7.26001C1.34182 0.750798 0.75 2.85767 0.75 7.34366V20.2808C0.761836 25.8203 1.30631 26.8264 7.26001 26.779Z" stroke="#456EFE" stroke-width="1.5" stroke-linecap="round" stroke-linejoin="round"/>
<path d="M8.36024 14.0312C8.46918 14.456 8.7147 14.8333 9.05903 15.1049C9.40336 15.3765 9.8274 15.5274 10.2659 15.5344H12.4911C12.9527 15.5159 13.3885 15.3171 13.705 14.9807C14.0215 14.6443 14.1934 14.1971 14.1837 13.7353C14.2351 13.3533 14.1423 12.9658 13.9234 12.6485C13.7046 12.3312 13.3754 12.1068 13.0001 12.019L9.44919 10.7644C9.07482 10.6792 8.74582 10.4571 8.52682 10.1417C8.30782 9.82633 8.21463 9.44049 8.26555 9.05993C8.25925 8.8283 8.29866 8.59771 8.38151 8.38132C8.46437 8.16493 8.58905 7.96699 8.74844 7.79881C8.90782 7.63063 9.09879 7.49551 9.31042 7.40116C9.52205 7.30682 9.7502 7.2551 9.98182 7.24896H12.2071C12.6572 7.24228 13.0966 7.38675 13.455 7.65927C13.8133 7.93179 14.0699 8.31661 14.1837 8.75218" stroke="#456EFE" stroke-width="1.5" stroke-linecap="round" stroke-linejoin="round"/>
<path d="M11.249 6.06539V16.7181" stroke="#456EFE" stroke-width="1.5" stroke-linecap="round" stroke-linejoin="round"/>
</svg>
