<svg width="24" height="24" viewBox="0 0 24 24" fill="none" xmlns="http://www.w3.org/2000/svg">
<path d="M15.05 0.75H8.45C4.1974 0.75 0.75 4.1974 0.75 8.45V15.05C0.75 19.3026 4.1974 22.75 8.45 22.75H15.05C19.3026 22.75 22.75 19.3026 22.75 15.05V8.45C22.75 4.1974 19.3026 0.75 15.05 0.75Z" stroke="#8E949A" stroke-width="1.5" stroke-linecap="round" stroke-linejoin="round"/>
<path d="M4.5498 11.75H18.9498" stroke="#8E949A" stroke-width="1.5" stroke-linecap="round" stroke-linejoin="round"/>
<path d="M18.9504 8.34985C18.8204 5.83985 17.7004 4.71985 15.1904 4.59985" stroke="#8E949A" stroke-width="1.5" stroke-linecap="round" stroke-linejoin="round"/>
<path d="M4.5498 8.34985C4.6798 5.83985 5.7998 4.71985 8.3098 4.59985" stroke="#8E949A" stroke-width="1.5" stroke-linecap="round" stroke-linejoin="round"/>
<path d="M4.5498 15.2C4.6798 17.71 5.7998 18.8299 8.3098 18.9599" stroke="#8E949A" stroke-width="1.5" stroke-linecap="round" stroke-linejoin="round"/>
<path d="M18.9504 15.2C18.8204 17.71 17.7004 18.8299 15.1904 18.9599" stroke="#8E949A" stroke-width="1.5" stroke-linecap="round" stroke-linejoin="round"/>
</svg>
