<svg width="24" height="24" viewBox="0 0 24 24" fill="none" xmlns="http://www.w3.org/2000/svg">
<path d="M21.2191 22.7402V10.8602C21.2191 9.7102 20.7491 9.3002 19.6591 9.3002H18.8891C17.7991 9.3002 17.3291 9.7102 17.3291 10.8602V22.7402" stroke="#8E949A" stroke-width="1.5" stroke-linecap="round" stroke-linejoin="round"/>
<path d="M13.6996 22.7402V14.1102C13.6996 12.9602 13.2296 12.5502 12.1396 12.5502H11.3596C10.2696 12.5502 9.80957 12.9602 9.80957 14.1102V22.7402" stroke="#8E949A" stroke-width="1.5" stroke-linecap="round" stroke-linejoin="round"/>
<path d="M6.14 22.7402V17.3802C6.14 16.2302 5.67 15.8202 4.58 15.8202H3.8C2.71 15.8202 2.25 16.2302 2.25 17.3802V22.7602" stroke="#8E949A" stroke-width="1.5" stroke-linecap="round" stroke-linejoin="round"/>
<path d="M0.75 22.7401H22.75" stroke="#8E949A" stroke-width="1.5" stroke-linecap="round" stroke-linejoin="round"/>
<path d="M2.23926 7.56017L20.3193 3.01016" stroke="#8E949A" stroke-width="1.5" stroke-linecap="round" stroke-linejoin="round"/>
<path d="M19.2198 6.38016L20.6398 3.80016C20.7935 3.52165 20.8304 3.19351 20.7422 2.88786C20.6541 2.58221 20.4482 2.32406 20.1698 2.17015L17.5898 0.750153" stroke="#8E949A" stroke-width="1.5" stroke-linecap="round" stroke-linejoin="round"/>
</svg>
