<svg width="18" height="18" viewBox="0 0 18 18" fill="none" xmlns="http://www.w3.org/2000/svg">
<path d="M3.68857 4.63342V13.654C3.68857 15.7872 4.79521 16.2896 6.14939 14.7679C6.27903 14.6058 6.44552 14.477 6.635 14.3923C6.82447 14.3075 7.03145 14.2692 7.23871 14.2806C7.44596 14.292 7.6475 14.3528 7.82654 14.4578C8.00558 14.5628 8.15694 14.7091 8.26803 14.8844L9.03977 15.9692C9.15315 16.1642 9.31569 16.3259 9.51117 16.4384C9.70664 16.5508 9.92819 16.61 10.1537 16.61C10.3792 16.61 10.6007 16.5508 10.7962 16.4384C10.9917 16.3259 11.1542 16.1642 11.2676 15.9692L11.9957 14.8917C12.1059 14.7145 12.257 14.5663 12.4364 14.4597C12.6158 14.3531 12.8182 14.2911 13.0266 14.279C13.2349 14.2668 13.4431 14.3049 13.6337 14.39C13.8242 14.4751 13.9915 14.6047 14.1216 14.7679C15.4758 16.2896 16.5824 15.7872 16.5824 13.654V4.63342C16.5824 1.40814 15.8544 0.600006 12.9931 0.600006H1.83203" stroke="#456EFE" stroke-width="1.2" stroke-linecap="round" stroke-linejoin="round"/>
<path d="M2.15298 0.600006C0.92257 0.600006 0.609507 1.40814 0.609507 4.63342V6.81758C0.559815 7.29607 0.698533 7.77508 0.99622 8.15297C1.29391 8.53085 1.72713 8.77786 2.20395 8.84157H3.66006V4.65526C3.68918 1.40814 3.38339 0.600006 2.15298 0.600006Z" stroke="#456EFE" stroke-width="1.2" stroke-linecap="round" stroke-linejoin="round"/>
<path d="M10.1617 5.8129C10.1617 5.8129 7.97754 7.45831 7.97754 9.35853C8.07896 9.86309 8.35194 10.317 8.7501 10.6431C9.14826 10.9692 9.64704 11.1474 10.1617 11.1474C10.6764 11.1474 11.1751 10.9692 11.5733 10.6431C11.9715 10.317 12.2444 9.86309 12.3459 9.35853C12.3531 7.45831 10.1617 5.8129 10.1617 5.8129Z" stroke="#456EFE" stroke-width="1.2" stroke-linecap="round" stroke-linejoin="round"/>
</svg>
